<?xml version="1.0" encoding="UTF-8" standalone="no"?>
<svg width="255px" height="132px" viewBox="0 0 255 132" version="1.1" xmlns="http://www.w3.org/2000/svg" xmlns:xlink="http://www.w3.org/1999/xlink" xmlns:sketch="http://www.bohemiancoding.com/sketch/ns">
    <title>laptop_screen</title>
    <desc>odoo assets</desc>
    <defs></defs>
    <g id="Page-1" stroke="none" stroke-width="1" fill="none" fill-rule="evenodd" sketch:type="MSPage">
        <g id="laptop_screen" sketch:type="MSLayerGroup">
            <g id="Device" sketch:type="MSShapeGroup">
                <path d="M0.104453878,5.53792313 C0.104453878,2.57937875 3.20593057,0.172638754 7.01849712,0.172638754 L247.971498,0.172638754 C251.784064,0.172638754 254.885541,2.57937875 254.885541,5.53792313 L254.885541,131.486493 L0.104453878,131.486493 L0.104453878,5.53792313 Z" id="Fill-1" fill="#110F11"></path>
                <path d="M0.20991212,131.218414 L254.780083,131.218414 L254.780083,5.5075877 C254.780083,2.59787433 251.726816,0.229937446 247.971498,0.229937446 L7.01849712,0.229937446 C3.26418369,0.229937446 0.20991212,2.59787433 0.20991212,5.5075877 L0.20991212,131.218414 L0.20991212,131.218414 Z M254.989995,131.377246 L0,131.377246 L0,5.50742792 C0,2.50750657 3.14767744,0.067248817 7.01849712,0.067248817 L247.971498,0.067248817 C251.842318,0.067248817 254.989995,2.50750657 254.989995,5.50742792 L254.989995,131.377246 L254.989995,131.377246 Z" id="Fill-2" fill="#A4A6A7"></path>
                <path d="M247.971498,1.0117434 L7.01849712,1.0117434 C3.67798175,1.0117434 0.945106724,3.14080047 0.945106724,5.74228608 L0.945106724,131.486493 L254.044888,131.486493 L254.044888,5.74228608 C254.044888,3.14080047 251.312013,1.0117434 247.971498,1.0117434" id="Fill-3" fill="#070505"></path>
            </g>
            <path d="M8.91875421,10.7176547 L245.846263,10.7176547 L245.846263,131.486493 L8.91875421,131.486493 L8.91875421,10.7176547 L8.91875421,10.7176547 Z" id="WhiteBG" fill="#FFFFFF" sketch:type="MSShapeGroup"></path>
            <g id="Camera" transform="translate(125.631902, 5.018568)" sketch:type="MSShapeGroup">
                <path d="M2.88553838,1.25263468 C2.88553838,1.81772549 2.4275483,2.27441521 1.86309561,2.27441521 C1.29864293,2.27441521 0.840652846,1.81772549 0.840652846,1.25263468 C0.840652846,0.688547589 1.29864293,0.230854148 1.86309561,0.230854148 C2.4275483,0.230854148 2.88553838,0.688547589 2.88553838,1.25263468" id="Fill-8" fill="#434544"></path>
                <path d="M0.840652846,1.14925217 C0.840652846,1.24460497 0.859735766,1.33393549 0.887857964,1.42125858 C1.03750823,1.63203845 1.28659056,1.77155466 1.56982126,1.77155466 C2.02781134,1.77155466 2.3994261,1.40720659 2.3994261,0.958546571 C2.3994261,0.651410183 2.22366237,0.387433483 1.96554076,0.249924708 L1.77872902,0.230854148 C1.26047709,0.230854148 0.840652846,0.64237676 0.840652846,1.14925217" id="Fill-9" fill="#070505"></path>
            </g>
        </g>
    </g>
</svg>